<svg xmlns="http://www.w3.org/2000/svg" viewBox="0 0 350 500" xmlns:v="https://vecta.io/nano"><style><![CDATA[.D{stroke-width:3}.E{stroke-linejoin:round}.F{stroke-miterlimit:10}.G{stroke-linecap:round}]]></style><g fill="none" class="D E F"><g stroke="#46bb72"><path d="M295.14 263.74H54.86a8.22 8.22 0 0 1-8.21-8.21v-92.02a8.22 8.22 0 0 1 8.21-8.21h240.28a8.22 8.22 0 0 1 8.21 8.21v92.02a8.21 8.21 0 0 1-8.21 8.21z"/><g class="G"><path d="M49.59 158.56l250.82 101.93"/><path d="M49.59 260.49l250.82-101.93"/></g></g><g stroke="#f73e3e"><path d="M295.14 434.16H152.67a8.22 8.22 0 0 1-8.21-8.21V290.81a8.22 8.22 0 0 1 8.21-8.21h142.47a8.22 8.22 0 0 1 8.21 8.21v135.14a8.22 8.22 0 0 1-8.21 8.21z"/><g class="G"><path d="M147.4 285.4l153.01 145.95"/><path d="M147.4 431.35L300.41 285.4"/></g></g><g stroke="#f1da57"><path d="M114.08 434.16H54.86a8.22 8.22 0 0 1-8.21-8.21V290.81a8.22 8.22 0 0 1 8.21-8.21h59.22a8.22 8.22 0 0 1 8.21 8.21v135.14a8.22 8.22 0 0 1-8.21 8.21z"/><g class="G"><path d="M50.5 285.4l67.94 145.95"/><path d="M50.5 431.35l67.94-145.95"/></g></g></g></svg>