<svg xmlns="http://www.w3.org/2000/svg" xmlns:xlink="http://www.w3.org/1999/xlink" viewBox="0 0 350 500" xmlns:v="https://vecta.io/nano"><use xlink:href="#B" fill="#bfbfbf"/><g fill="#212121"><path d="M115.03 419.07h0c-3.97 0-7.19-3.22-7.19-7.19h0c0-3.97 3.22-7.19 7.19-7.19h0c3.97 0 7.19 3.22 7.19 7.19h0c0 3.98-3.22 7.19-7.19 7.19z"/><use xlink:href="#C"/></g><use xlink:href="#D" opacity=".9" fill="#46bb72"/><use xlink:href="#D" x="9.39" opacity=".9" fill="#f73e3e"/><use xlink:href="#C" x="28.18" opacity=".9" fill="#f1da57"/><use xlink:href="#B" y="-30.22" fill="#bfbfbf"/><use xlink:href="#E" fill="#212121"/><use xlink:href="#D" x="-9.4" y="-30.21" opacity=".9" fill="#f1da57"/><use xlink:href="#F" opacity=".9" fill="#f73e3e"/><use xlink:href="#F" x="9.39" fill="#212121"/><use xlink:href="#D" x="18.78" y="-30.21" opacity=".9" fill="#46bb72"/><use xlink:href="#B" y="-60.43" fill="#bfbfbf"/><use xlink:href="#E" y="-30.22" fill="#212121"/><use xlink:href="#D" x="-9.4" y="-60.43" opacity=".9" fill="#46bb72"/><use xlink:href="#F" y="-30.22" opacity=".9" fill="#f1da57"/><use xlink:href="#F" x="9.39" y="-30.22" fill="#212121"/><use xlink:href="#D" x="18.78" y="-60.43" opacity=".9" fill="#f73e3e"/><g stroke-miterlimit="10"><path d="M103.99,98.69h32.7c11.41,0,20.67,9.25,20.67,20.67v59.35" fill="none" stroke="#f73e3e" stroke-width="4"/><path d="M105.85 79.13v39.12a2.78 2.78 0 0 1-2.78 2.78H79.19a2.78 2.78 0 0 1-2.78-2.78V79.13a2.78 2.78 0 0 1 2.78-2.78h23.89c1.53 0 2.77 1.24 2.77 2.78z" fill="#313131" stroke="#bfbfbf" stroke-width="3"/><g fill="none" stroke-width="4"><path d="M157.35,251.5v-72.79c0-11.41,9.25-20.67,20.67-20.67h41.52" stroke="#f1da57"/><path d="M67.7,230.83h68.99c11.41,0,20.67,9.25,20.67,20.67v39.83" stroke="#46bb72"/></g><g stroke="#bfbfbf"><g fill="#3a3a3a"><path d="M267.08 191.39v8.42" stroke-width="6"/><path d="M286.43 200.67h-38.69" stroke-linecap="round" stroke-width="3"/></g><path d="M317.57 191.39H216.6a7.16 7.16 0 0 1-7.16-7.16v-61.65a7.16 7.16 0 0 1 7.16-7.16h100.97a7.16 7.16 0 0 1 7.16 7.16v61.65a7.16 7.16 0 0 1-7.16 7.16zm-292.3 74.73v-70.56c0-2.77 2.24-5.01 5.01-5.01h43.08c2.77 0 5.01 2.24 5.01 5.01v70.56c0 2.77-2.24 5.01-5.01 5.01H30.27a5.02 5.02 0 0 1-5-5.01z" stroke-width="3" fill="#313131"/></g><path d="M157.35,338.33v-50.79c0-11.41,9.25-20.67,20.67-20.67h72.64" fill="none" stroke="#46bb72" stroke-width="4"/><path d="M270.61 247.46v38.82a2.75 2.75 0 0 1-2.75 2.75h-23.7a2.75 2.75 0 0 1-2.75-2.75v-38.82a2.75 2.75 0 0 1 2.75-2.75h23.7a2.75 2.75 0 0 1 2.75 2.75z" fill="#313131" stroke="#bfbfbf" stroke-width="3"/></g><defs ><path id="B" d="M208.33 423.65H106.37c-3.77 0-6.82-3.05-6.82-6.82v-9.89c0-3.77 3.05-6.82 6.82-6.82h101.96c3.77 0 6.82 3.05 6.82 6.82v9.89c0 3.77-3.05 6.82-6.82 6.82z"/><path id="C" d="M169.1 416.59h0c-1.51 0-2.74-1.23-2.74-2.74v-2.44c0-1.51 1.23-2.74 2.74-2.74h0c1.51 0 2.74 1.23 2.74 2.74v2.44a2.73 2.73 0 0 1-2.74 2.74z"/><path id="D" d="M178.5 416.59h0c-1.51 0-2.74-1.23-2.74-2.74v-2.44c0-1.51 1.23-2.74 2.74-2.74h0c1.51 0 2.74 1.23 2.74 2.74v2.44a2.74 2.74 0 0 1-2.74 2.74z"/><path id="E" d="M115.03 388.86h0c-3.97 0-7.19-3.22-7.19-7.19h0c0-3.97 3.22-7.19 7.19-7.19h0c3.97 0 7.19 3.22 7.19 7.19h0c0 3.97-3.22 7.19-7.19 7.19z"/><path id="F" d="M178.5 386.38h0c-1.51 0-2.74-1.23-2.74-2.74v-2.44c0-1.51 1.23-2.74 2.74-2.74h0c1.51 0 2.74 1.23 2.74 2.74v2.44c0 1.51-1.23 2.74-2.74 2.74z"/></defs></svg>